<?xml version="1.0" encoding="UTF-8"?><svg xmlns="http://www.w3.org/2000/svg" xmlns:xlink="http://www.w3.org/1999/xlink" width="375" zoomAndPan="magnify" viewBox="0 0 375 374.999991" height="374.999991" preserveAspectRatio="xMidYMid meet" version="1.0"><defs><filter x="0%" y="0%" width="100%" xmlns:xlink="http://www.w3.org/1999/xlink" xlink:type="simple" xlink:actuate="onLoad" height="100%" id="filter-remove-color" xlink:show="other"><feColorMatrix values="0 0 0 0 1 0 0 0 0 1 0 0 0 0 1 0 0 0 1 0" color-interpolation-filters="sRGB"/></filter><mask id="mask-0"><g filter="url(#filter-remove-color)"><rect x="-37.5" width="450" fill="rgb(0%, 0%, 0%)" y="-37.499999" height="449.999989" fill-opacity="0.498"/></g></mask><clipPath id="clip-0"><path d="M 0.441406 1 L 206.839844 1 L 206.839844 207.839844 L 0.441406 207.839844 Z M 0.441406 1 " clip-rule="nonzero"/></clipPath><clipPath id="clip-1"><rect x="0" width="207" y="0" height="208"/></clipPath><mask id="mask-1"><g filter="url(#filter-remove-color)"><rect x="-37.5" width="450" fill="rgb(0%, 0%, 0%)" y="-37.499999" height="449.999989" fill-opacity="0.498"/></g></mask><clipPath id="clip-2"><path d="M 0.0390625 1 L 206.679688 1 L 206.679688 207.679688 L 0.0390625 207.679688 Z M 0.0390625 1 " clip-rule="nonzero"/></clipPath><clipPath id="clip-3"><rect x="0" width="207" y="0" height="208"/></clipPath></defs><g mask="url(#mask-0)"><g transform="matrix(1, 0, 0, 1, 37, 36)"><g id="source-5" clip-path="url(#clip-1)"><g clip-path="url(#clip-0)"><path fill="rgb(18.03894%, 15.689087%, 16.468811%)" d="M 103.542969 207.585938 C 76.03125 207.585938 50.125 196.878906 30.6875 177.398438 C 11.207031 157.957031 0.5 132.054688 0.5 104.542969 C 0.5 77.03125 11.207031 51.125 30.6875 31.6875 C 50.125 12.207031 76.03125 1.5 103.542969 1.5 C 131.054688 1.5 156.957031 12.207031 176.398438 31.6875 C 195.878906 51.167969 206.585938 77.03125 206.585938 104.542969 C 206.585938 132.054688 195.878906 157.957031 176.398438 177.398438 C 156.957031 196.878906 131.054688 207.585938 103.542969 207.585938 Z M 103.542969 7.675781 C 77.679688 7.675781 53.339844 17.769531 35.054688 36.054688 C 16.769531 54.339844 6.675781 78.679688 6.675781 104.542969 C 6.675781 130.40625 16.769531 154.746094 35.054688 173.03125 C 53.339844 191.316406 77.679688 201.40625 103.542969 201.40625 C 129.40625 201.40625 153.746094 191.316406 172.03125 173.03125 C 190.316406 154.746094 200.40625 130.40625 200.40625 104.542969 C 200.40625 78.679688 190.316406 54.339844 172.03125 36.054688 C 153.746094 17.769531 129.40625 7.675781 103.542969 7.675781 Z M 103.542969 7.675781 " fill-opacity="1" fill-rule="nonzero"/></g></g></g></g><g mask="url(#mask-1)"><g transform="matrix(1, 0, 0, 1, 131, 130)"><g id="source-8" clip-path="url(#clip-3)"><g clip-path="url(#clip-2)"><path fill="rgb(18.03894%, 15.689087%, 16.468811%)" d="M 103.292969 207.335938 C 75.78125 207.335938 49.875 196.628906 30.4375 177.148438 C 10.957031 157.707031 0.25 131.804688 0.25 104.292969 C 0.25 76.78125 10.957031 50.875 30.4375 31.4375 C 49.875 11.957031 75.78125 1.25 103.292969 1.25 C 130.804688 1.25 156.707031 11.957031 176.148438 31.4375 C 195.628906 50.917969 206.335938 76.78125 206.335938 104.292969 C 206.335938 131.804688 195.628906 157.707031 176.148438 177.148438 C 156.707031 196.628906 130.804688 207.335938 103.292969 207.335938 Z M 103.292969 7.425781 C 77.429688 7.425781 53.089844 17.519531 34.804688 35.804688 C 16.519531 54.089844 6.425781 78.429688 6.425781 104.292969 C 6.425781 130.15625 16.519531 154.496094 34.804688 172.78125 C 53.089844 191.066406 77.429688 201.15625 103.292969 201.15625 C 129.15625 201.15625 153.496094 191.066406 171.78125 172.78125 C 190.066406 154.496094 200.15625 130.15625 200.15625 104.292969 C 200.15625 78.429688 190.066406 54.089844 171.78125 35.804688 C 153.496094 17.519531 129.15625 7.425781 103.292969 7.425781 Z M 103.292969 7.425781 " fill-opacity="1" fill-rule="nonzero"/></g></g></g></g></svg>